<?xml version="1.0" encoding="UTF-8" standalone="no"?>
<!-- Created with Inkscape (http://www.inkscape.org/) -->

<svg
   width="8.5in"
   height="11in"
   viewBox="0 0 816 1056"
   version="1.1"
   id="svg5"
   inkscape:version="1.1.2 (b8e25be833, 2022-02-05)"
   sodipodi:docname="大狗狗!.svg"
   xmlns:inkscape="http://www.inkscape.org/namespaces/inkscape"
   xmlns:sodipodi="http://sodipodi.sourceforge.net/DTD/sodipodi-0.dtd"
   xmlns="http://www.w3.org/2000/svg"
   xmlns:svg="http://www.w3.org/2000/svg">
  <sodipodi:namedview
     id="namedview7"
     pagecolor="#ffffff"
     bordercolor="#111111"
     borderopacity="1"
     inkscape:pageshadow="0"
     inkscape:pageopacity="0"
     inkscape:pagecheckerboard="1"
     inkscape:document-units="in"
     showgrid="false"
     inkscape:zoom="0.34043561"
     inkscape:cx="699.10431"
     inkscape:cy="938.50348"
     inkscape:window-width="1530"
     inkscape:window-height="997"
     inkscape:window-x="783"
     inkscape:window-y="118"
     inkscape:window-maximized="0"
     inkscape:current-layer="layer1" />
  <defs
     id="defs2" />
  <g
     inkscape:label="Layer 1"
     inkscape:groupmode="layer"
     id="layer1">
    <path
       style="display:inline;fill:#80c342;fill-opacity:1;stroke:none;stroke-width:0.999998px;stroke-linecap:butt;stroke-linejoin:miter;stroke-opacity:1"
       d="m 503.72427,786.7419 179.68137,-27.27006 -12.15233,-93.58375 -173.3452,45.65932 z"
       id="path688448"
       sodipodi:nodetypes="ccccc" />
    <path
       style="display:inline;fill:#bd2b47;fill-opacity:1;stroke:none;stroke-width:0.999998px;stroke-linecap:butt;stroke-linejoin:miter;stroke-opacity:1"
       d="M 390.89088,743.41723 562.50417,133.58749 639.79648,214.60398 474.67197,770.05879 Z"
       id="path688450" />
    <path
       style="display:inline;fill:#e55177;fill-opacity:1;stroke:none;stroke-width:0.999998px;stroke-linecap:butt;stroke-linejoin:miter;stroke-opacity:1"
       d="M 25.866971,523.21488 22.574091,630.60886 232.27807,826.46428 246.08583,665.76301 Z"
       id="path688452"
       sodipodi:nodetypes="ccccc" />
    <path
       style="display:inline;fill:#aee0eb;fill-opacity:1;stroke:none;stroke-width:0.999998px;stroke-linecap:butt;stroke-linejoin:miter;stroke-opacity:1"
       d="m 669.22767,469.9291 35.13286,44.19084 -103.05637,81.0166 -49.77157,-43.57709 z"
       id="path688454" />
    <path
       style="display:inline;fill:#015480;fill-opacity:1;stroke:none;stroke-width:0.999998px;stroke-linecap:butt;stroke-linejoin:miter;stroke-opacity:1"
       d="m 71.096738,287.07938 -35.132859,61.37614 53.870334,56.46614 91.930957,-48.4871 z"
       id="path688456" />
    <rect
       style="display:inline;fill:#f8a9c2;fill-opacity:1;stroke:none;stroke-width:0.5;stroke-linecap:round;stroke-linejoin:round"
       id="rect688458"
       width="58.55476"
       height="61.376217"
       x="650.00128"
       y="354.74847" />
    <rect
       style="display:inline;fill:#f39025;fill-opacity:1;stroke:none;stroke-width:0.5;stroke-linecap:round;stroke-linejoin:round"
       id="rect688460"
       width="91.345428"
       height="95.74688"
       x="708.55609"
       y="259.00168" />
    <path
       id="path688462"
       style="display:inline;fill:#ffffff;fill-opacity:1;stroke:none;stroke-width:0.999998px;stroke-linecap:butt;stroke-linejoin:miter;stroke-opacity:1"
       d="m 503.72427,786.7419 18.98866,50.62085 -4.99696,-53.48631 -29.98232,-19.10208 z m -15.99062,-21.96754 29.98232,19.10208 4.99696,53.48631 -20.98753,69.72288 -55.96692,49.66578 -94.94394,14.80411 -1.499,-56.82897 55.46715,9.55114 45.97281,-27.69825 31.98107,-54.44123 20.9877,-55.39631 z m -265.27812,39.27708 -13.93659,84.9845 29.98236,38.20435 z m 113.77694,122.91632 -71.37551,-59.43206 -42.40143,-63.48426 9.04987,-14.82444 -59.46484,31.04104 6.9959,48.23311 59.46484,58.73914 81.95152,50.14325 v 0 l 15.77965,-50.41578 m 111.36912,-171.43264 -13.08334,9.98005 -26.65572,33.4305 21.90741,91.84951 22.61406,-62.13354 -2.12015,-47.27544 z m -203.59206,-3.36533 27.56097,22.28725 9.15575,6.82401 22.73669,24.11647 40.72596,8.35715 30.23214,-2.14893 19.98816,-5.25308 -10.82848,90.68293 -24.38076,9.45508 -58.30191,-26.33921 -44.87472,-57.40593 -16.60731,-25.32616 3.53349,-22.28708 z m 4.51628,-97.70845 -6.8944,11.05228 -8.22881,14.24028 -2.44642,14.66543 -0.44473,5.73852 -0.8897,-12.75239 1.11198,-9.1394 7.11685,-11.68979 6.44959,-9.13923 z m 1.46869,21.82393 2.49854,5.25306 -0.4089,12.45592 -3.1136,4.67586 21.79525,18.27858 -7.02943,-0.78768 -12.74248,-5.01421 -6.746,-6.92463 -2.49854,-12.17758 2.74831,-13.13274 z m -26.37749,-22.2489 14.23357,12.5399 12.14392,9.709 -5.49685,2.62658 -2.74831,13.13274 2.49854,12.17758 6.746,6.92463 -16.49028,28.89199 -31.98107,-31.0411 -12.24276,-22.92258 -5.12394,-14.73284 z m 40.11935,62.12464 7.02943,0.78768 14.67837,18.70371 21.7952,10.20189 -4.27619,40.26862 0.49977,14.08777 -22.73669,-24.11641 -28.73287,-23.16149 -17.48978,-12.89399 16.49028,-28.89199 z m 55.51261,-26.41765 -12.06851,-2.4794 -13.99623,0.45085 -18.41525,6.70452 -22.68484,-0.42508 0.4089,-12.45592 -2.49854,-5.25306 -12.14392,-9.709 38.1923,-12.97714 5.68286,18.86576 20.48077,7.66432 z m -74.75132,-10.83151 -2.74831,13.13274 2.49854,12.17758 6.746,6.92463 12.74248,5.01421 7.02943,0.78768 -13.7755,-11.29383 -8.01975,-6.98475 3.1136,-4.67586 0.4089,-12.45592 -2.49854,-5.25306 z m 116.80051,64.52553 -14.02674,5.3926 -40.03206,-2.97569 -4.27619,40.26862 0.49977,14.08777 40.72596,8.35727 30.23214,-2.149 19.98816,-5.25311 9.11369,-6.56954 -22.96749,-20.59862 z m 92.593,-30.95683 5.4697,23.17185 -13.08335,9.98005 -20.13708,-21.83042 z m -49.61284,-2.28896 3.49798,5.25312 18.36413,8.35732 20.13708,21.83042 -15.90047,20.59851 -26.85415,28.36534 -22.96749,-20.59862 -19.25724,-30.5603 19.77796,-7.78498 20.90568,-22.5294 z m -2.4271,-77.03188 23.5891,17.73411 19.1858,16.83245 2.51618,10.82086 -11.95183,-16.83238 -16.04057,-11.12149 -21.38747,-14.72836 -6.60491,-6.91336 z m -23.94586,-2.50812 2.91511,2.11057 1.67833,10.5525 -10.60037,9.45509 35.86454,3.03913 10.13229,4.59775 16.61526,7.76018 10.1156,-0.44054 -5.03241,-37.27182 -24.21804,-6.01159 z m -4.36097,0.10347 -5.03241,10.21963 -11.63721,2.7052 -10.37922,-2.10392 -11.63731,0.30052 -8.49204,8.41615 11.56426,1.19317 33.96797,1.28394 10.60037,-9.45509 -1.67833,-10.5525 -2.91511,-2.11057 z m -35.61393,20.73075 29.19787,1.28394 40.63464,3.03913 10.13229,4.59775 -15.36588,24.95213 -14.33641,1.83411 -32.91523,-2.12542 -17.79207,2.12542 8.45126,-13.60267 z m -169.59252,-27.56411 88.4369,-9.81241 -33.15783,39.92708 -38.46118,17.3059 -11.30704,-24.65084 z m 224.41414,84.6317 -11.34231,9.9894 -10.67528,9.77692 0.88952,3.93202 5.53823,-5.44473 20.92752,-20.37913 v 0 0 z m 2.38101,-3.45743 -8.60816,1.54444 -10.78637,7.97037 -11.78721,11.90227 0.88959,10.20212 7.67283,1.0626 8.31247,-7.61724 18.67168,-22.38484 0.007,-2.86741 z m -1.82496,-17.05288 -0.44486,6.27003 -5.44874,0.84999 -1.44558,3.40079 2.27928,-0.25365 0.86494,3.83236 23.5437,-15.37484 -19.34874,1.27532 m -35.36158,18.9162 0.77838,-3.507 4.89276,2.97559 z m -20.57209,6.69501 -1.44552,-2.55045 -1.00077,2.23169 z m -57.93511,-11.1585 4.78152,4.88852 4.11455,0.53129 -0.18354,5.12306 -2.26287,-0.55336 -18.68166,-10.83967 0.88958,-0.63757 6.67205,0.10632 z m 0,0 4.78152,4.88852 4.11455,0.53129 5.11517,4.25089 4.44797,-1.38146 5.44876,0.95643 7.44814,0.29518 7.11913,2.68035 17.01358,-1.38146 1.00077,-2.23169 1.44552,2.55045 15.67932,-1.4878 4.89277,-5.20721 0.77838,-3.507 4.89276,2.97559 6.33846,-1.59401 3.2248,-5.52603 5.22637,3.82564 7.56163,-4.56958 1.44558,-3.40079 5.44874,-0.84999 0.44486,-6.27003 -12.45441,3.82568 -17.23603,3.71955 -26.91041,4.25077 -22.79587,2.65671 -18.90405,-0.85016 z m -12.232,-0.85016 18.68166,10.83967 35.80637,8.92681 18.68155,3.18812 26.46563,-9.77691 18.23674,-9.98946 27.57757,-18.0661 -19.34874,1.27532 -12.45441,3.82568 -15.34554,3.29434 -19.45998,3.18824 -17.01364,2.65672 -15.12315,1.48773 -18.90405,-0.85016 -15.56801,0.85016 -4.67037,-1.38141 -6.67205,-0.10632 -1.55682,0.85022 z m 45.31991,-51.353 -8.49203,-1.50285 -13.83901,4.50867 -14.15334,0.30067 5.68286,18.86576 37.52323,17.27847 z m 90.00212,35.06612 10.7436,-17.19195 4.62228,-7.76018 26.73086,7.31964 2.51618,10.82086 6.74886,33.93342 -27.75073,11.32148 -18.36413,-8.35732 -3.49798,-5.25312 10.60261,-14.92215 6.22715,-17.42847 -13.34399,7.22648 z m -76.16318,-35.06612 11.56426,1.19317 8.00647,22.10439 -8.45126,13.60267 -18.2367,2.55049 -17.04246,-9.61415 1.82872,-31.33942 8.49203,1.50285 z m -69.59136,-36.18335 21.78412,-17.27058 v 4.76013 l -12.26627,30.95957 0.31449,11.42204 9.4357,9.61868 -38.1923,12.97714 -14.23357,-12.5399 z m -0.0751,-56.69564 -9.7501,3.00581 -11.95177,7.81505 -26.10515,4.20811 -12.42366,-0.30062 22.33103,3.15611 16.51229,-2.55492 14.15344,-6.76304 7.54842,-6.1618 z m -61.52424,-34.31137 -29.52952,12.06857 1.25813,-3.30649 -11.00827,8.11567 0.31455,-4.50873 3.77435,-10.21957 -6.29052,2.70514 -6.29041,-0.3005 8.80658,48.09263 32.04496,-13.74325 3.78079,-14.45278 9.78559,-12.96509 z m 0,0 9.78565,-4.46337 31.13762,-9.61862 24.84699,0.60129 -14.42159,22.41586 -10.67518,-4.03841 -17.34727,0.42514 -16.67999,6.16371 z m 252.28135,-87.42335 -8.4922,-3.90744 -10.0646,-22.84396 1.25806,22.2428 -6.91947,-8.11562 -4.08874,15.02892 -12.26632,0.90179 1.25817,-14.72836 -4.7178,-17.133 -3.45979,9.61846 -0.94367,9.3179 1.88723,25.54939 0.31444,4.05772 11.63734,-0.75139 27.04888,5.71101 z m -263.5686,21.94246 2.36561,33.39546 -16.51912,11.09024 6.29041,-1.80358 -13.52439,10.52042 7.86309,-3.00583 -13.20982,12.32372 -3.4598,7.81505 -6.29041,-0.3005 1.57256,-33.96556 -8.49209,-44.18514 15.41156,29.15622 -11.63726,-32.76321 13.83894,18.33535 9.43559,6.6127 -8.80659,-17.13283 -11.00822,-20.13899 v -6.31203 l 11.00822,26.45102 9.75014,5.4104 z m 10.0647,29.15622 60.0734,0.90167 -11.63726,-36.9712 -34.91181,-5.71109 -12.89538,-8.11559 0.94355,4.20805 -23.27453,-17.73418 22.33098,24.04637 -8.17747,-2.10403 -22.33104,-19.23719 0.62911,6.91342 19.18575,24.64755 2.36561,33.39546 z m 190.12786,-22.69503 -17.29867,5.11107 -23.43182,9.16768 -5.16623,9.50737 -1.9842,4.43247 15.48536,1.53991 25.4761,-6.9133 26.89155,-5.41035 28.46411,-1.50291 19.18586,0.30061 -17.92774,-6.76303 2.20168,-0.45096 -9.90748,-5.71218 -15.88324,-3.60695 -16.66951,-1.052 z m -75.64224,-10.06813 -6.29041,-9.31806 10.3791,5.10995 22.42969,16.61364 -12.36493,-18.11661 11.00821,2.70521 8.49204,0.30056 -9.1211,-15.93066 13.83895,12.02316 8.80653,1.80347 -11.00821,-17.13306 13.83889,7.81506 -7.23398,-17.73413 15.09707,16.23127 14.15344,12.02316 -2.51617,-9.91908 10.6937,7.21399 12.26633,3.90749 0.31444,4.05772 -16.98406,4.35856 -40.88778,18.33524 -7.15043,13.93984 z m 34.91175,24.34688 c 0,0 -34.91175,-24.34688 -34.91175,-24.34688 l -9.7502,-0.90179 -21.38743,-12.92494 -19.8148,-18.33536 16.66957,28.25443 -62.58969,-47.19084 1.88718,7.51448 12.58087,18.33536 14.46796,12.62428 -6.60503,-2.70532 8.49209,12.02333 -18.24219,-0.90174 29.87945,37.87294 z m 129.26813,-165.61924 17.29863,18.03468 9.43576,6.0117 2.20162,1.80341 -10.0647,-5.10979 6.29029,5.71096 4.40341,3.60699 -8.49203,-4.50884 5.97585,5.41047 4.4033,4.50878 -5.97591,-4.20816 4.40329,7.51454 1.88706,5.71102 -8.49203,-10.82087 -7.86297,-9.61851 7.54846,14.4278 3.14519,9.61851 1.57262,9.3179 -4.4033,-12.62427 -5.66136,-10.52026 -4.40329,-6.9133 7.86309,17.133 3.45962,10.52024 1.25812,9.0174 -0.62912,6.91332 -2.83057,-13.82663 -4.4034,-12.62433 0.94368,8.71684 -2.51613,-8.11573 -4.71785,-11.42198 -5.97591,-12.92489 -3.45968,-8.71684 -9.43571,-15.32965 z m -76.86397,-2.5982 -10.67518,-4.25083 -3.11359,5.10093 -8.45111,-0.42513 -2.22407,9.35194 6.67199,11.90234 8.45116,23.37956 11.56487,19.97898 8.00637,13.60271 -6.22714,-27.63057 5.78224,11.90239 3.55845,10.62702 3.11359,13.17764 -2.22395,-13.60267 4.44797,10.62709 -5.33761,-28.05544 -9.34069,-16.15316 -4.44809,-15.72814 4.44809,5.52613 12.00961,14.87786 8.89589,14.87797 6.22726,11.47714 -2.22401,-9.77686 5.33761,12.32741 3.11361,9.77697 -0.88965,-17.85349 6.2272,8.07652 -4.44797,-13.17757 4.44797,2.12546 -4.44797,-10.62707 -5.33763,-9.77692 -7.11683,-14.87797 -16.45759,-19.97886 z m 52.48636,15.72802 13.34398,21.6793 9.78565,20.40406 2.66881,16.57824 -8.45116,-20.82902 0.88963,10.62702 -4.89293,-13.17769 -6.67199,-17.85344 z m -179.43187,-47.69644 11.0081,14.4278 6.27284,9.6104 -14.03022,-13.4614 3.43841,9.14382 -6.69053,-6.01203 0.62396,7.95106 -6.93067,-6.93942 3.76775,9.35756 -7.20984,-1.53444 -11.63733,6.91337 -5.66136,11.12148 -1.57256,-10.21969 -6.29052,10.21969 -5.97586,10.2197 -6.60486,-13.82664 -3.77435,10.82076 -8.49209,21.34123 -6.60486,11.12142 -0.94355,-7.8151 -4.7178,8.41622 -6.60503,9.31806 -21.0728,10.21964 -18.87136,3.30632 2.83068,-12.32378 20.75842,-35.46829 30.19411,-27.65337 25.16155,-18.03474 14.78262,1.50297 11.63715,1.50285 5.34681,-10.21969 z m 173.64946,2.63762 16.45769,10.20194 -24.46406,-7.65138 14.23362,13.60261 -21.87146,-14.51325 -18.16049,-4.19037 -1.74372,11.04327 6.63649,14.88686 -16.01279,-16.15326 -18.2367,-17.00328 -16.0129,1.27525 -5.78236,7.22642 v 0 l -20.13859,0.56052 -14.55585,8.7912 v 0 l -0.44469,11.05227 2.22402,10.62697 -26.24335,-22.9545 -18.68149,-8.92675 8.43806,-13.61504 20.02909,-1.26281 9.34079,2.12547 9.34092,-11.90239 20.90555,-0.85016 27.13277,5.95117 26.68802,9.35182 21.3503,4.67592 z m -140.55669,-30.606 -10.67512,-0.85016 -10.67529,8.50172 -11.56476,-0.85022 -1.33443,-2.55044 -10.67518,4.67586 -8.45115,1.27525 -4.00325,4.25077 -12.00961,0.85017 -9.78553,6.37636 -6.67194,5.9511 -7.56169,3.82575 -22.23993,12.32748 -15.56806,7.22635 -13.34398,8.07664 -3.55833,8.07659 -6.67211,3.82574 -6.2272,0.42509 -3.55839,8.92674 -0.88947,5.52603 -4.89283,4.67603 -8.89601,2.55044 -5.33768,-0.42509 -6.0759,10.74551 v 0 0 l -9.43565,22.24295 3.14534,11.42199 -2.51629,11.4221 1.25812,5.41045 3.14512,14.42775 4.40336,13.82663 -3.7743,10.21969 -4.40324,4.80928 9.4356,9.01729 v 7.21404 l -1.25806,7.21376 4.40324,10.82098 0.62905,13.82657 -1.25806,11.42197 4.40335,13.8268 6.29031,6.01153 3.14523,4.80917 16.35506,31.2603 -2.51606,9.01745 5.0323,6.61271 3.48208,9.04763 8.46974,3.57669 -12.26632,-63.42216 1.57256,-33.96556 -8.49209,-44.18514 4.08885,8.11572 11.32271,21.0405 -11.63726,-32.76321 13.83894,18.33535 9.43559,6.6127 -11.00821,-20.43932 -8.80659,-16.8325 v -6.31203 l 11.00822,26.45102 9.75014,5.4104 15.41157,-1.50291 -19.18575,-24.64755 -0.62911,-6.91342 22.33104,19.23719 8.17747,2.10403 -22.33098,-24.04637 18.55685,13.22551 4.71768,4.50867 -0.94355,-4.20805 12.89538,8.11559 16.66962,4.80935 18.24219,0.90174 -8.49209,-12.02333 6.60503,2.70532 -14.46796,-12.62428 -12.58087,-18.33536 -1.88718,-7.51448 21.07286,15.93071 18.24235,13.52601 23.27448,17.73412 -11.63727,-20.43938 -5.0323,-7.81505 19.8148,18.33536 21.38743,12.92494 9.7502,0.90179 -6.29041,-9.31806 10.3791,5.10995 v 0 l 22.42969,16.61364 -12.36493,-18.11661 11.00821,2.70521 8.49204,0.30056 -9.1211,-15.93066 13.83895,12.02316 8.80653,1.80347 -11.00821,-17.13306 13.83889,7.81506 -7.23398,-17.73413 15.09707,16.23127 14.15344,12.02316 -2.51617,-9.91908 10.6937,7.21399 5.97591,1.80335 6.29042,2.10414 -1.88723,-25.54939 0.94367,-9.3179 3.45979,-9.61846 4.7178,17.133 -1.25817,14.72836 12.26632,-0.90179 4.08874,-15.02892 6.91947,8.11562 -0.94355,-13.22551 -0.31451,-9.01729 10.0646,22.84396 8.4922,3.90744 v -13.52595 l 12.89528,10.21969 6.60497,0.90178 24.21809,21.34112 13.20983,61.31814 3.14529,32.46254 8.17754,-45.08687 10.69377,-15.02897 3.77423,-18.0348 v -25.84978 l 1.88706,-13.2255 -0.62894,-10.21965 -6.29053,-18.03473 v -10.82087 l 3.14518,-8.41627 -12.58077,-18.03469 -1.88706,-10.82092 4.40323,-9.61851 -10.06465,-17.43368 -6.91942,-13.82663 -14.46799,-21.64167 -6.29043,-6.61282 -10.0647,-3.60687 -11.95188,-10.82093 -21.38731,-10.21968 -18.87124,2.40464 -6.91959,1.80352 -20.12929,-12.62444 -7.54848,-3.00571 -26.41972,-4.80923 h -33.9683 l -12.58077,3.60683 -3.77435,4.20811 z m 136.9983,351.96902 27.1135,-13.50227 37.11342,39.07546 3.38269,9.2838 -2.19591,19.21805 -5.36572,17.33905 -12.00955,25.07991 -27.57761,36.98229 -14.23351,-74.8147 z m -65.35566,28.57895 -2.20166,-11.7226 -4.0888,-8.11561 -8.17759,-6.3122 18.4414,-3.70363 61.38231,1.27509 6.22731,58.66159 v 0 l -14.02859,-20.3546 -17.72191,-6.48914 z m -31.13733,-62.52055 129.26779,-12.62433 -5.6613,33.06366 -27.1135,13.50227 -33.71657,2.42854 h -46.10715 l -8.17747,-9.01745 z m 70.76699,-73.94258 -12.26632,-9.91913 36.48443,-1.50286 21.70198,2.85554 5.48402,31.48863 -13.34718,-0.37861 -13.20988,-15.93077 z m -53.31138,18.18518 -3.61689,12.02316 -0.94367,10.36991 -21.70187,-14.72836 2.51612,-24.04631 19.81491,-1.20235 44.97646,-10.52036 12.26632,9.91913 -26.26259,3.30643 -13.68156,4.05789 z m 36.16987,16.68216 11.48017,15.63004 v 0 l 9.43559,9.31796 4.56058,7.96538 50.16597,-6.46247 -7.09669,-38.39607 -13.34718,-0.37861 -15.72589,3.60688 -13.83901,-2.40463 -10.22198,3.60692 z m -53.62548,39.07524 24.83555,-2.08728 104.43224,-10.53705 -36.16976,-35.1678 -13.83901,-2.40463 -10.22198,3.60692 -15.41156,7.5146 -33.18191,3.15604 -5.50407,5.41041 -2.04445,-2.85554 -21.70187,-14.72836 5.03235,33.96545 z m -9.16393,-71.66145 10.1072,-18.21173 15.41157,-6.61282 25.47621,-11.72242 c 0,0 13.83894,-4.20822 15.097,-4.20822 1.25818,0 13.5244,-0.90173 13.5244,-0.90173 l 27.04888,5.71101 22.01642,12.02316 8.17742,6.91337 -16.04051,-1.50292 11.00827,4.20806 6.91941,3.60711 -6.91941,-0.60135 2.51618,1.80353 -30.19401,-4.20817 -36.48443,1.50286 -44.97646,10.52036 z m 106.66526,-35.94591 7.54847,-24.94822 v -13.52595 l 19.50025,11.12147 24.21809,21.34112 13.20983,61.31814 3.77435,78.15064 -5.03241,33.66495 -37.11342,-39.07546 5.6613,-33.06366 -8.17748,-47.49157 -4.40323,-22.39313 8.49203,1.35263 -2.51618,-1.80353 6.91941,0.60135 -6.91941,-3.60711 -1.88718,-3.60693 6.91942,0.90179 z m -139.96184,54.40477 -21.07291,14.12735 -17.92785,-19.53769 -0.39094,-12.51179 -6.52849,-9.43051 89.32397,-9.31795 -7.23397,17.73418 -2.51612,24.04631 z m 73.75507,26.45096 18.87124,7.0637 25.63355,1.35252 13.83883,-1.95368 -15.09694,6.16185 -23.43171,-0.3005 -13.83905,-4.80934 -8.49204,-3.9075 -1.25811,-4.50866 z m -96.37603,1.75084 -30.77071,11.4857 -20.49152,3.46063 -27.35519,-1.06282 -42.49775,18.63177 8.35317,36.6599 3.77436,11.5128 88.4369,-9.81241 21.78412,-17.27058 z m -16.3798,-33.61214 17.92785,19.53769 -1.43584,27.10785 -27.97195,9.71303 7.54842,-6.1618 -0.31451,-2.4047 4.28045,-6.46002 -4.22563,-9.13934 -10.23039,-9.77685 z m 95.92899,134.05831 3.30246,-1.95375 -6.13319,-4.95951 -10.0253,0.11266 -9.1605,4.9972 11.63731,-0.30052 z m -66.67855,9.61857 -5.97586,-2.25435 -0.62894,-3.75717 2.98795,-1.9538 4.40318,-1.5029 5.50419,1.05201 7.54849,3.90754 z m 53.78316,-39.3759 11.95188,6.01158 9.43554,1.80353 8.17758,9.01739 -17.61312,-4.20822 -20.44385,-1.20225 1.5725,-9.01733 z m -24.53265,-72.43968 9.7502,12.32389 11.32272,6.31219 10.37921,35.46824 8.17747,9.01745 -21.70187,0.30052 -16.98417,-13.82664 -6.60486,-30.65907 -1.88718,-22.54352 z m -7.54848,-3.60694 1.88718,22.54352 6.60486,30.65907 2.20173,25.54923 3.77418,33.66488 8.49204,-8.41615 9.1605,-4.9972 10.0253,-0.11266 6.13319,4.95951 -3.30246,1.95375 11.63721,-2.7052 5.0324,-10.21963 -2.20166,-11.7226 -4.0888,-8.11561 -8.17759,-6.3122 -8.17747,-9.01745 -10.37921,-35.46824 -11.32272,-6.31219 -9.7502,-12.32389 z m -26.41982,-12.92483 2.51634,29.75733 2.51607,37.27189 -3.45974,23.74575 -5.03224,17.43363 -5.97598,20.43942 -9.4357,-9.61868 -0.31449,-11.42204 12.26627,-30.95957 0.10716,-39.67859 0.20751,-32.76098 z m 14.46811,-9.91919 5.34674,45.08704 4.08886,32.46254 5.03235,32.76309 -11.95183,-0.60111 -6.29047,-14.1273 -0.94345,-43.88458 -4.08885,-45.38748 z m -21.07291,14.12735 -0.94357,52.00013 0.6289,20.43944 -6.60481,17.43362 -5.66146,13.52595 0.31449,11.42204 9.4357,9.61868 14.15334,-0.30067 13.83901,-4.50867 8.49203,1.50285 h 13.83894 l 8.49204,-8.41615 11.63731,-0.30052 10.37922,2.10392 11.63721,-2.7052 5.0324,-10.21963 -2.20166,-11.7226 -4.0888,-8.11561 -8.17759,-6.3122 -8.17747,-9.01745 -12.26628,-41.47993 -5.03235,-33.96545 -33.65369,-5.1099 z m -34.79592,6.70385 0.90616,5.16892 -1.14675,10.3291 5.55005,-2.13824 6.29052,-0.82665 1.96574,-0.45083 -1.25812,-1.72839 -5.58274,-4.88443 z m -18.43674,18.77013 -7.86315,0.15033 -12.10905,-0.30061 -4.16734,-1.87861 0.94355,-2.78034 2.04564,-2.27105 4.44797,-7.22641 8.76061,-4.70492 -1.41527,4.28325 0.23584,6.31214 4.79651,7.06359 z m 7.86292,-13.30065 3.93151,0.15028 3.69557,-0.52592 0.236,1.80347 -2.20168,0.82665 -3.85289,-0.45095 -3.69563,-1.50291 -2.04429,-0.15034 2.28012,-1.20223 z m -15.80469,-5.71096 -1.41527,4.28325 0.23584,6.31214 4.79651,7.06359 4.32469,1.35263 7.83604,-0.9533 5.86068,-1.01177 4.49943,-1.30704 1.14675,-10.3291 -0.90616,-5.16892 -9.3408,-2.55049 -13.78877,0.42508 z m 42.13073,12.97847 -3.07536,-6.78582 -11.28666,-8.44841 -9.5633,-4.0916 -16.77377,0.35224 -15.19616,6.66169 -8.00642,10.30833 -4.89288,13.39017 5.56001,-4.88851 7.89523,-7.54523 4.44797,-7.22641 12.00955,-6.58885 13.78877,-0.42508 9.3408,2.55049 10.45285,8.76735 z m 1.15027,2.35352 -4.22563,-9.13934 -10.23039,-9.77685 -10.67517,-4.03841 -17.34728,0.42514 -16.67998,6.16371 -9.78559,12.96509 -2.89121,10.41449 -0.88958,4.03829 10.45279,-4.88852 9.34079,-0.21243 18.0144,1.27525 16.01286,-0.85016 15.79034,-4.67597 z m 118.65023,-36.87607 -4.8927,0.21266 2.00161,-2.55056 3.33594,0.10633 3.22486,-0.95645 8.22881,1.91282 c 0,0 4.22553,0.74401 4.67038,0.74401 0.44479,0 4.78706,0.65901 4.78706,0.65901 l -3.89753,2.10391 -4.44787,0.63763 -8.34001,-1.91287 z m -10.33217,-1.45022 -0.15717,5.0347 2.59467,6.237 4.63936,4.13297 2.59479,0.82659 -9.35709,0.90168 -8.96381,-0.45084 6.91952,-15.32942 z m 31.68813,-1.35264 6.60486,0.75141 3.85284,0.15033 1.65123,-2.3295 2.90935,-0.3757 2.35895,5.33526 -4.56052,3.6822 -7.46992,-1.42773 -5.34679,-2.85559 z m -5.26836,-6.76303 4.95381,5.03476 0.31455,4.65895 -1.4154,5.4104 -2.51612,5.18499 -4.95379,2.8556 19.34301,-6.0117 13.21001,-6.1618 -8.64943,-6.01163 -14.93973,-4.20811 z m -26.41977,8.11567 -0.15717,5.0347 2.59467,6.237 4.63936,4.13297 2.59479,0.82659 13.13117,-1.20223 4.95379,-2.8556 2.51612,-5.18499 1.4154,-5.4104 -0.31455,-4.65895 -3.22391,-3.68219 -1.7299,-1.35257 -8.0202,-0.60112 -12.4236,2.70521 z m -13.99616,22.24284 3.61706,-2.7052 4.0888,-7.21387 4.56057,-10.97109 7.7057,-7.36426 12.4236,-2.70521 13.36711,1.35258 14.93973,4.20811 12.58088,7.96532 6.91953,3.00582 9.27831,-1.95368 -6.91941,-9.01746 -11.00832,-6.76303 -19.65758,-4.95957 -20.28663,-0.15028 -13.68156,4.05789 -13.36723,10.82086 -3.61689,12.02316 z m 2.04445,2.85554 -2.04445,-2.85554 0.94367,-10.36991 3.61689,-12.02316 13.36723,-10.82086 13.68156,-4.05789 26.26259,-3.30643 24.84705,6.6128 13.20988,15.93077 -15.72589,3.60688 -13.83901,-2.40463 -25.63354,11.12152 -33.18191,3.15604 -3.30239,4.35839 z m -103.35015,-46.16817 -30.39525,-3.12138 -24.44827,3.43084 -17.34711,9.13929 -11.44192,6.8118 -13.20982,12.32372 -3.4598,7.81505 6.29053,-2.70514 -3.77435,10.21957 c -1.10487,0.77598 8.70178,-6.11169 13.05267,-9.16767 l 6.53789,-3.19299 22.01765,-9.77693 42.03363,-8.07651 4.42401,-1.94777 4.7178,-0.30067 z m 6.94938,18.06403 -0.39094,-12.51179 -6.52849,-9.43051 h -11.32277 l -20.12924,-0.90167 h -28.6214 l -24.21821,15.32948 6.29042,-1.80358 -13.5244,10.52042 7.86309,-3.00583 -13.20982,12.32372 -3.4598,7.81505 6.29053,-2.70514 -3.77435,10.21957 -0.31456,4.50873 11.00827,-8.11567 -1.25812,3.30649 39.31517,-16.53194 31.13762,-9.61862 z m 27.2061,203.41709 0.18354,-5.12306 5.11517,4.25089 4.44797,-1.38146 5.44876,0.95643 3.67586,0.16994 3.77227,0.12524 3.77626,1.52799 3.34288,1.15236 17.01358,-1.38146 2.44629,0.31876 15.67932,-1.4878 4.89277,-5.20721 5.67114,-0.53141 6.33846,-1.59401 -0.81506,-4.64495 8.25615,-1.42777 1.01008,4.37233 7.56162,-4.56958 2.27929,-0.25365 0.86494,3.83236 -4.03387,2.69126 -18.23674,9.98946 -26.46564,9.77691 -18.68154,-3.18812 -6.95553,-1.73057 z m 31.09709,-23.29531 18.2367,-2.55049 17.79206,-2.12542 32.91524,2.12542 19.57112,-2.12542 13.34399,-7.22648 -6.22715,17.42847 -12.89913,17.85356 -20.90568,22.5294 -33.8047,13.17758 -40.03206,-2.97569 -21.79521,-10.20189 -14.67836,-18.70371 -21.79525,-18.27858 3.1136,-4.67586 22.68484,0.42508 18.41525,-6.70452 13.99623,-0.45085 z" />
    <path
       style="display:inline;fill:#bd2b47;fill-opacity:1;stroke:none;stroke-width:0.999998px;stroke-linecap:butt;stroke-linejoin:miter;stroke-opacity:1"
       d="m 322.10977,678.5576 16.44067,-2.40593 16.03967,-2.00504 29.67352,2.00504 17.64353,-2.00504 12.02982,-6.81683 -5.61387,16.44062 -11.62877,16.84173 -18.84665,21.25254 -30.47543,12.43077 -36.08929,-2.80688 -19.64862,-9.62389 -13.23273,-17.64358 -19.64862,-17.2427 2.80688,-4.41091 20.45064,0.40101 16.60159,-6.32451 12.61778,-0.42531 z"
       id="path688464" />
    <path
       style="display:inline;fill:#f5f5f5;stroke:none;stroke-width:0.999998px;stroke-linecap:butt;stroke-linejoin:miter;stroke-opacity:1"
       d="m 294.07538,700.53259 0.16546,-4.83263 4.61136,4.00991 4.00996,-1.3032 4.91208,0.90229 3.31382,0.16036 3.40073,0.11814 3.40441,1.44138 3.0136,1.08711 15.338,-1.3033 2.20537,0.30073 14.13502,-1.40351 4.41097,-4.91204 5.11264,-0.50123 5.7141,-1.50375 -0.73471,-4.38168 7.44293,-1.34687 0.91064,4.12452 6.81689,-4.31062 2.05476,-0.23926 0.77973,3.61522 -3.6365,2.53869 -16.44067,9.42327 -23.85909,9.22284 -16.84163,-3.00745 -6.27048,-1.63241 z"
       id="path688466"
       sodipodi:nodetypes="ccccccccccccccccccccccccccc" />
    <path
       style="display:inline;fill:#bd2b47;fill-opacity:1;stroke:none;stroke-width:0.999998px;stroke-linecap:butt;stroke-linejoin:miter;stroke-opacity:1"
       d="m 269.54879,508.64403 -0.35247,-11.80267 -5.88543,-8.89612 -10.2076,6e-5 -18.14678,-0.85061 h -25.80258 l -21.83293,14.46072 5.67081,-1.70135 -12.19236,9.92412 7.08862,-2.83538 -11.90883,11.62529 -3.11903,7.3721 5.67093,-2.5519 -3.40257,9.64051 -0.2836,4.2532 9.92413,-7.65581 -1.13426,3.11902 35.44315,-15.59493 28.07089,-9.07344 z"
       id="path688468"
       sodipodi:nodetypes="cccccccccccccccccccc" />
    <path
       style="display:inline;fill:#3d2657;fill-opacity:1;stroke:none;stroke-width:0.999998px;stroke-linecap:butt;stroke-linejoin:miter;stroke-opacity:1"
       d="m 263.28385,491.60375 -27.4017,-2.94445 -22.04037,3.23638 -15.63862,8.62132 -10.31509,6.4258 -11.90883,11.62529 -3.11903,7.3721 5.67093,-2.5519 -3.40257,9.64051 c -0.99602,0.73198 7.84473,-5.76538 11.76717,-8.64812 l 5.894,-3.01209 19.84912,-9.22272 37.89383,-7.61892 3.98829,-1.83734 4.25318,-0.28354 z"
       id="path688470"
       sodipodi:nodetypes="cccccccccccccccc" />
    <path
       style="display:inline;fill:#015480;fill-opacity:1;stroke:none;stroke-width:0.999998px;stroke-linecap:butt;stroke-linejoin:miter;stroke-opacity:1"
       d="m 356.45517,535.1554 -1.843,-2.69373 0.85056,-9.78223 3.26081,-11.3418 12.05065,-10.20759 12.33412,-3.82782 23.67594,-3.11903 22.40002,6.238 11.90882,15.02785 -14.17713,3.40257 -12.47596,-2.26836 -23.10886,10.49113 -29.91388,2.97721 -2.97726,4.11137 z"
       id="path688472"
       sodipodi:nodetypes="ccccccccccccccc" />
    <path
       style="display:inline;fill:#2a1a3c;fill-opacity:1;stroke:none;stroke-width:0.999998px;stroke-linecap:butt;stroke-linejoin:miter;stroke-opacity:1"
       d="m 354.61217,532.46167 3.26075,-2.5519 3.68611,-6.80497 4.11136,-10.34942 6.94685,-6.94685 11.20008,-2.55184 12.05055,1.27592 13.46834,3.96965 11.34174,7.51387 6.23801,2.83549 8.36455,-1.84299 -6.23796,-8.50637 -9.92411,-6.37978 -17.72147,-4.67848 -18.28866,-0.14177 -12.33412,3.82782 -12.05065,10.20759 -3.26081,11.3418 z"
       id="path688474" />
    <path
       style="display:inline;fill:#2d1b40;fill-opacity:1;stroke:none;stroke-width:0.999998px;stroke-linecap:butt;stroke-linejoin:miter;stroke-opacity:1"
       d="m 367.22989,511.47947 -0.1417,4.74937 2.33913,5.88347 4.1823,3.89876 2.33918,0.77979 11.83806,-1.13421 4.46578,-2.69361 2.26836,-4.8912 1.27599,-5.10374 -0.2836,-4.39496 -2.90632,-3.47345 -1.55952,-1.27598 -7.23023,-0.56702 -11.20008,2.55184 z"
       id="path688476" />
    <path
       style="display:inline;fill:#f8a9c2;fill-opacity:1;stroke:none;stroke-width:0.999998px;stroke-linecap:butt;stroke-linejoin:miter;stroke-opacity:1"
       d="m 391.04755,503.82371 4.46584,4.74943 0.2836,4.39496 -1.27599,5.10374 -2.26836,4.8912 -4.46578,2.69361 17.43799,-5.67087 11.90888,-5.8127 -7.79752,-5.67082 -13.46834,-3.96965 z"
       id="path688478"
       sodipodi:nodetypes="ccccccccccc" />
    <path
       style="display:inline;fill:#fbda52;fill-opacity:1;stroke:none;stroke-width:0.999998px;stroke-linecap:butt;stroke-linejoin:miter;stroke-opacity:1"
       d="m 395.79699,510.20349 5.95446,0.70885 3.4734,0.14171 1.48851,-2.19743 2.62285,-0.35436 2.12658,5.03286 -4.11135,3.47351 -6.73426,-1.34687 -4.82019,-2.69366 z"
       id="path688480" />
    <path
       style="display:inline;fill:#548331;fill-opacity:1;stroke:none;stroke-width:0.999998px;stroke-linecap:butt;stroke-linejoin:miter;stroke-opacity:1"
       d="m 367.22989,511.47947 -0.1417,4.74937 2.33913,5.88347 4.1823,3.89876 2.33918,0.77979 -8.43542,0.85056 -8.081,-0.42525 6.23801,-14.46079 z"
       id="path688482" />
    <path
       style="display:inline;fill:#ffffff;fill-opacity:1;stroke:none;stroke-width:0.999998px;stroke-linecap:butt;stroke-linejoin:miter;stroke-opacity:1"
       d="m 376.5445,512.84755 -4.41097,0.2005 1.80442,-2.40599 3.00744,0.10023 2.90722,-0.90218 7.41841,1.80453 c 0,0 3.80945,0.70168 4.21041,0.70168 0.401,0 4.31556,0.62178 4.31556,0.62178 l -3.51356,1.98465 -4.00995,0.60151 -7.51858,-1.80448 z"
       id="path688484" />
    <path
       style="display:inline;fill:#015480;fill-opacity:1;stroke:none;stroke-width:0.999998px;stroke-linecap:butt;stroke-linejoin:miter;stroke-opacity:1"
       d="m 269.57974,547.63366 -3.80939,-8.62133 -9.22289,-9.22293 -9.62372,-3.80934 -15.63878,0.40094 -15.03715,5.81439 -8.82182,12.23032 -2.60649,9.82428 -0.80196,3.80946 9.42327,-4.61147 8.42088,-0.20051 16.24011,1.20302 14.43587,-0.80201 14.23519,-4.41091 z"
       id="path688486" />
    <path
       style="display:inline;fill:#2a1a3c;fill-opacity:1;stroke:none;stroke-width:0.999998px;stroke-linecap:butt;stroke-linejoin:miter;stroke-opacity:1"
       d="m 268.5429,545.41345 -2.77255,-6.40112 -10.17519,-7.96974 -8.62137,-3.85963 -15.12164,0.33226 -13.69958,6.28419 -7.21796,9.72406 -4.41091,12.63121 5.01247,-4.61135 7.11757,-7.11762 4.00985,-6.8169 10.82685,-6.21538 12.43078,-0.40096 8.42086,2.40593 9.42334,8.27049 z"
       id="path688488"
       sodipodi:nodetypes="cccccccccccccccc" />
    <path
       style="display:inline;fill:#2d1b40;fill-opacity:1;stroke:none;stroke-width:0.999998px;stroke-linecap:butt;stroke-linejoin:miter;stroke-opacity:1"
       d="m 230.56145,533.17063 -1.27586,4.04048 0.21259,5.95441 4.32406,6.66325 3.89883,1.27599 7.06426,-0.89928 5.28341,-0.95447 4.05633,-1.23292 1.03387,-9.74371 -0.81686,-4.87598 -8.42086,-2.40593 -12.43078,0.40096 z"
       id="path688490"
       sodipodi:nodetypes="ccccccccccccc" />
    <path
       style="display:inline;fill:#aee0eb;fill-opacity:1;stroke:none;stroke-width:0.999998px;stroke-linecap:butt;stroke-linejoin:miter;stroke-opacity:1"
       d="m 244.80957,538.55786 3.54429,0.14183 3.33174,-0.49619 0.21265,1.70116 -1.98488,0.77979 -3.47345,-0.42525 -3.33157,-1.41775 -1.843,-0.14176 2.05565,-1.13421 z"
       id="path688492" />
    <path
       style="display:inline;fill:#f8a9c2;fill-opacity:1;stroke:none;stroke-width:0.999998px;stroke-linecap:butt;stroke-linejoin:miter;stroke-opacity:1"
       d="m 237.72107,551.10476 -7.08868,0.14176 -10.9165,-0.28353 -3.757,-1.77217 0.85073,-2.62278 1.84412,-2.14233 4.00985,-6.8169 7.89786,-4.43818 -1.27586,4.04048 0.21259,5.95441 4.32406,6.66325 z"
       id="path688494" />
    <path
       style="display:inline;fill:#7b9fa6;fill-opacity:1;stroke:none;stroke-width:0.999998px;stroke-linecap:butt;stroke-linejoin:miter;stroke-opacity:1"
       d="m 254.34208,533.3984 0.81686,4.87598 -1.03387,9.74371 5.00352,-2.01714 5.67087,-0.77972 1.77211,-0.42531 -1.1341,-1.6304 -5.03297,-4.60766 z"
       id="path688496"
       sodipodi:nodetypes="ccccccccc" />
    <path
       style="display:inline;fill:#fbda52;fill-opacity:1;stroke:none;stroke-width:0.999998px;stroke-linecap:butt;stroke-linejoin:miter;stroke-opacity:1"
       d="m 285.7109,527.07439 -0.85068,49.05317 0.56709,19.28098 -5.95436,16.4456 -5.10392,12.75949 0.2836,10.77462 8.50638,9.07351 12.75943,-0.28354 12.47596,-4.25319 7.65575,1.41763 h 12.4759 l 7.6557,-7.93917 10.49113,-0.28354 9.35698,1.98476 10.49113,-2.55184 4.53673,-9.64052 -1.98482,-11.05821 -3.68605,-7.65564 -7.37221,-5.95447 -7.37205,-8.50636 -11.05828,-39.1291 -4.53678,-32.04048 -30.33919,-4.82032 z"
       id="path688498"
       sodipodi:nodetypes="cccccccccccccccccccccccc" />
    <path
       style="display:inline;fill:#9eea51;fill-opacity:1;stroke:none;stroke-width:0.999998px;stroke-linecap:butt;stroke-linejoin:miter;stroke-opacity:1"
       d="m 304.70834,513.74777 4.82026,42.53166 3.68606,30.62279 4.53672,30.90633 -10.77467,-0.56707 -5.67088,-13.32651 -0.85072,-41.39758 -3.68606,-42.81515 z"
       id="path688500" />
    <path
       style="display:inline;fill:#bd2b47;fill-opacity:1;stroke:none;stroke-width:0.999998px;stroke-linecap:butt;stroke-linejoin:miter;stroke-opacity:1"
       d="m 291.66531,523.1048 2.26837,28.0709 2.26835,35.15945 -3.11903,22.39996 -4.53672,16.44554 -5.38727,19.28111 -8.50638,-9.07351 -0.2836,-10.77462 11.05828,-29.20509 0.0965,-37.42972 0.18712,-30.90443 z"
       id="path688502"
       sodipodi:nodetypes="cccccccccccc" />
    <path
       style="display:inline;fill:none;stroke:none;stroke-width:0.999998px;stroke-linecap:butt;stroke-linejoin:miter;stroke-opacity:1"
       d="m 315.48301,535.29717 1.70124,21.26581 5.95446,28.9215 1.98483,24.1013 3.40251,31.75688 7.6557,-7.93917 8.25821,-4.71393 9.03795,-0.10633 5.52922,4.67848 -2.97727,1.843 10.49113,-2.55184 4.53673,-9.64052 -1.98482,-11.05821 -3.68605,-7.65564 -7.37221,-5.95447 -7.37205,-8.50636 -9.35704,-33.45824 -10.20748,-5.95441 -8.79003,-11.62533 z"
       id="path688504"
       sodipodi:nodetypes="cccccccccccccccccccc" />
    <path
       style="display:inline;fill:#ffffff;fill-opacity:1;stroke:none;stroke-width:0.999998px;stroke-linecap:butt;stroke-linejoin:miter;stroke-opacity:1"
       d="m 322.28804,538.69969 8.79003,11.62533 10.20748,5.95441 9.35704,33.45824 7.37205,8.50636 -19.56453,0.28349 -15.3114,-13.04304 -5.95446,-28.9215 -1.70124,-21.26581 z"
       id="path688506" />
    <path
       style="display:inline;fill:#aee0eb;fill-opacity:1;stroke:none;stroke-width:0.999998px;stroke-linecap:butt;stroke-linejoin:miter;stroke-opacity:1"
       d="m 344.40453,607.03382 10.77472,5.67088 8.50626,1.7014 7.37221,8.50625 -15.87847,-3.9697 -18.43037,-1.1341 1.41769,-8.50631 z"
       id="path688508" />
    <path
       style="display:inline;fill:#f39025;fill-opacity:1;stroke:none;stroke-width:0.999998px;stroke-linecap:butt;stroke-linejoin:miter;stroke-opacity:1"
       d="m 295.91844,644.17822 -5.38733,-2.12654 -0.56702,-3.5444 2.69361,-1.84299 3.96959,-1.4178 4.96208,0.99249 6.80503,3.68605 z"
       id="path688510" />
    <path
       style="display:inline;fill:#f39025;fill-opacity:1;stroke:none;stroke-width:0.999998px;stroke-linecap:butt;stroke-linejoin:miter;stroke-opacity:1"
       d="m 356.02986,635.10471 2.97727,-1.843 -5.52922,-4.67848 -9.03795,0.10633 -8.25821,4.71393 10.49113,-0.28354 z"
       id="path688512"
       sodipodi:nodetypes="ccccccc" />
    <path
       style="display:inline;fill:#537d2a;fill-opacity:1;stroke:none;stroke-width:0.999998px;stroke-linecap:butt;stroke-linejoin:miter;stroke-opacity:1"
       d="m 269.54879,508.64403 16.16211,18.43036 -1.29434,25.57163 -25.21708,9.16258 6.80496,-5.81276 -0.28342,-2.26836 3.85872,-6.09382 -3.80939,-8.62133 -9.22289,-9.22293 z"
       id="path688514" />
    <path
       style="display:inline;fill:#ffc5d7;fill-opacity:1;stroke:none;stroke-width:0.999998px;stroke-linecap:butt;stroke-linejoin:miter;stroke-opacity:1"
       d="m 284.31539,540.35125 -27.7401,10.83475 -18.47349,3.26449 -24.66099,-1.00251 -38.31224,17.57577 7.53056,34.58231 3.40257,10.86017 79.72684,-9.2562 19.63877,-16.2918 z"
       id="path688516"
       sodipodi:nodetypes="cccccccccc" />
    <path
       style="display:inline;fill:#bd2b47;fill-opacity:1;stroke:none;stroke-width:0.999998px;stroke-linecap:butt;stroke-linejoin:miter;stroke-opacity:1"
       d="m 371.19949,538.69969 17.01262,6.66331 23.10892,1.27592 12.47596,-1.843 -13.61023,5.81265 -21.12392,-0.28355 -12.47602,-4.53678 -7.65563,-3.68604 -1.13426,-4.25318 z"
       id="path688518" />
    <path
       style="display:inline;fill:#f39d41;fill-opacity:1;stroke:none;stroke-width:0.999998px;stroke-linecap:butt;stroke-linejoin:miter;stroke-opacity:1"
       d="m 304.70834,513.74777 -18.99744,13.32662 -16.16211,-18.43036 -0.35247,-11.80267 -5.88543,-8.89612 80.52656,-8.78985 -6.52155,16.72909 -2.26837,22.68361 z"
       id="path688520" />
    <path
       style="display:inline;fill:#ffffff;fill-opacity:1;stroke:none;stroke-width:0.999998px;stroke-linecap:butt;stroke-linejoin:miter;stroke-opacity:1"
       d="m 430.88554,462.42636 6.80509,-23.53422 v -12.75949 l 17.57976,10.49107 21.83294,20.13166 11.90882,57.84306 3.40256,73.72147 -4.53671,31.75701 -33.45823,-36.8608 5.10375,-31.18986 -7.37211,-44.79997 -3.96959,-21.1241 7.6557,1.27598 -2.26841,-1.70124 6.238,0.56714 -6.238,-3.40263 -1.70124,-3.40251 6.2379,0.85068 z"
       id="path688522"
       sodipodi:nodetypes="ccccccccccccccccccc" />
    <path
       style="display:inline;fill:#bd2b47;fill-opacity:1;stroke:none;stroke-width:0.999998px;stroke-linecap:butt;stroke-linejoin:miter;stroke-opacity:1"
       d="m 334.7257,496.33492 9.11175,-17.17953 13.89365,-6.23801 22.96713,-11.0581 c 0,0 12.47591,-3.9697 13.61012,-3.9697 1.13427,0 12.19236,-0.8506 12.19236,-0.8506 l 24.38483,5.38738 19.84819,11.34175 7.37204,6.5215 -14.46067,-1.41776 9.92401,3.96959 6.238,3.40263 -6.238,-0.56714 2.26841,1.70124 -27.22033,-3.9696 -32.89104,1.41763 -40.5469,9.92412 z"
       id="path688524"
       sodipodi:nodetypes="ccccsccccccccccccc" />
    <path
       style="display:inline;fill:#e57692;fill-opacity:1;stroke:none;stroke-width:0.999998px;stroke-linecap:butt;stroke-linejoin:miter;stroke-opacity:1"
       d="m 342.987,563.93519 22.38959,-1.96909 94.14693,-9.93984 -32.60756,-33.17464 -12.47596,-2.26836 -9.21515,3.40252 -13.89371,7.08861 -29.91388,2.97721 -4.96209,5.1038 -1.843,-2.69373 -19.56464,-13.89358 4.53678,32.04048 z"
       id="path688526"
       sodipodi:nodetypes="ccccccccccccc" />
    <path
       style="display:inline;fill:#fbda52;fill-opacity:1;stroke:none;stroke-width:0.999998px;stroke-linecap:butt;stroke-linejoin:miter;stroke-opacity:1"
       d="m 391.33114,527.07439 10.34937,14.74427 v 0 l 8.50625,8.78991 4.11153,7.51393 45.22523,-6.09624 -6.39781,-36.22004 -12.03262,-0.35717 -14.17713,3.40257 -12.47596,-2.26836 -9.21515,3.40252 z"
       id="path688528"
       sodipodi:nodetypes="cccccccccccc" />
    <path
       style="display:inline;fill:#972239;fill-opacity:1;stroke:none;stroke-width:0.999998px;stroke-linecap:butt;stroke-linejoin:miter;stroke-opacity:1"
       d="m 358.72354,511.33764 -3.26081,11.3418 -0.85056,9.78223 -19.56464,-13.89358 2.26837,-22.68361 17.86335,-1.13416 40.5469,-9.92412 11.0581,9.357 -23.67594,3.11903 -12.33412,3.82782 z"
       id="path688530" />
    <path
       style="display:inline;fill:#aee0eb;fill-opacity:1;stroke:none;stroke-width:0.999998px;stroke-linecap:butt;stroke-linejoin:miter;stroke-opacity:1"
       d="m 406.78425,494.1832 -11.0581,-9.357 32.89104,-1.41763 19.56463,2.69362 4.94389,29.70403 -12.03262,-0.35717 -11.90882,-15.02785 z"
       id="path688532" />
    <path
       style="display:inline;fill:#ffc5d7;fill-opacity:1;stroke:none;stroke-width:0.999998px;stroke-linecap:butt;stroke-linejoin:miter;stroke-opacity:1"
       d="m 342.987,563.93519 116.53652,-11.90893 -5.10375,31.18986 -24.44306,12.7371 -30.39592,2.29081 h -41.56615 l -7.37205,-8.50636 z"
       id="path688534"
       sodipodi:nodetypes="cccccccc" />
    <path
       style="display:inline;fill:#f39025;fill-opacity:1;stroke:none;stroke-width:0.999998px;stroke-linecap:butt;stroke-linejoin:miter;stroke-opacity:1"
       d="m 371.05772,622.91235 -1.98482,-11.05821 -3.68605,-7.65564 -7.37221,-5.95447 16.6251,-3.49378 55.33697,1.20297 5.61382,55.33691 v 0 l -12.64685,-19.20103 -15.97651,-6.12138 z"
       id="path688536"
       sodipodi:nodetypes="ccccccccccc" />
    <path
       style="display:inline;fill:#fbda52;fill-opacity:1;stroke:none;stroke-width:0.999998px;stroke-linecap:butt;stroke-linejoin:miter;stroke-opacity:1"
       d="m 429.97671,595.95322 24.44306,-12.7371 33.45823,36.8608 3.04949,8.75765 -1.97962,18.12886 -4.83728,16.35646 -10.82674,23.65852 -24.86154,34.88628 -12.83178,-70.57456 z"
       id="path688538"
       sodipodi:nodetypes="cccccccccc" />
    <path
       style="display:inline;fill:#2d1b40;fill-opacity:1;stroke:none;stroke-width:0.999998px;stroke-linecap:butt;stroke-linejoin:miter;stroke-opacity:1"
       d="m 306.47105,263.9316 -9.62378,-0.80196 -9.62383,8.01992 -10.42574,-0.80207 -1.20302,-2.40588 -9.62383,4.41086 -7.6188,1.20296 -3.609,4.0099 -10.82676,0.80201 -8.82182,6.01495 -6.01487,5.61382 -6.81691,3.60889 -20.04956,11.62882 -14.0348,6.81689 -12.02977,7.61886 -3.20789,7.6188 -6.01488,3.60895 -5.61393,0.40101 -3.20795,8.42087 -0.80195,5.21287 -4.41092,4.41096 -8.01986,2.40593 -4.81192,-0.40106 -5.47748,10.1366 v 0 0 l -8.50636,20.98233 2.83544,10.77467 -2.26836,10.77466 1.13419,5.10387 2.83538,13.6101 3.96971,13.04298 -3.40257,9.64057 -3.96965,4.53668 8.50638,8.50625 v 6.80514 l -1.13416,6.80502 3.96954,10.20765 0.56713,13.04298 -1.13415,10.77467 3.96958,13.04309 5.67088,5.67088 2.83538,4.5366 14.74437,29.4887 -2.26836,8.50636 4.53673,6.23795 3.13908,8.53476 7.63559,3.37407 -11.05821,-59.82783 1.41764,-32.04053 -7.65565,-41.68095 3.68611,7.65565 10.20753,19.84811 -10.49107,-30.90638 12.47591,17.29627 8.50635,6.23795 -9.9241,-19.28104 -7.93918,-15.87847 v -5.95436 l 9.92406,24.95192 8.78984,5.10374 13.89365,-1.41774 -17.2961,-23.25063 -0.56708,-6.52149 20.1316,18.14683 7.3721,1.98483 -20.1316,-22.68357 16.72914,12.47597 4.25313,4.25318 -0.85067,-3.96964 11.62529,7.65569 15.02785,4.53667 16.44561,0.85067 -7.65565,-11.34181 5.95441,2.5519 -13.04308,-11.90882 -11.3417,-17.29621 -1.70128,-7.08863 18.99739,15.02786 16.4456,12.75949 20.98232,16.72909 -10.49113,-19.28099 -4.53672,-7.37216 17.86329,17.29622 19.28104,12.19242 8.78986,0.85067 -5.67083,-8.78991 9.35693,4.82021 v 0 l 20.22057,15.67214 -11.14718,-17.08978 9.92399,2.55185 7.65581,0.28359 -8.22282,-15.02786 12.47595,11.34176 7.93925,1.70122 -9.92406,-16.16201 12.47589,7.37217 -6.52143,-16.72909 13.61006,15.31133 12.75955,11.34175 -2.26836,-9.35692 9.64046,6.8052 5.38733,1.70116 5.67099,1.98483 -1.70139,-24.1013 0.85066,-8.78985 3.11903,-9.07349 4.25314,16.16205 -1.13421,13.89376 11.05832,-0.85072 3.68605,-14.17713 6.23795,7.65564 -0.85067,-12.47596 -0.28354,-8.50631 9.07345,21.54935 7.65569,3.6861 v -12.75949 l 11.62529,9.64046 5.95447,0.85061 21.83294,20.13166 11.90882,57.84306 2.8355,30.62279 7.37209,-42.53167 9.64053,-14.17719 3.40251,-17.01268 v -24.38477 l 1.70123,-12.47596 -0.56703,-9.64052 -5.67081,-17.01268 v -10.20754 l 2.83533,-7.9393 -11.34176,-17.01256 -1.70122,-10.2076 3.96954,-9.07349 -9.07335,-16.44555 -6.23794,-13.04309 -13.04303,-20.41514 -5.67093,-6.23801 -9.07339,-3.40257 -10.77473,-10.20759 -19.28093,-9.64047 -17.01273,2.26831 -6.23806,1.70128 -18.14678,-11.90882 -6.80509,-2.83555 -23.8177,-4.53661 h -30.62279 l -11.34169,3.40252 -3.40268,3.96964 z"
       id="path688540"
       sodipodi:nodetypes="ccccccccccccccccccccccccccccccccccccccccccccccccccccccccccccccccccccccccccccccccccccccccccccccccccccccccccccccccccccccccccccccccccccccccccccccccccccccc" />
    <path
       style="display:inline;fill:#bd2b47;fill-opacity:1;stroke:none;stroke-width:0.999998px;stroke-linecap:butt;stroke-linejoin:miter;stroke-opacity:1"
       d="m 433.1846,292.80304 14.83675,9.62384 -22.05466,-7.21785 12.83183,12.83178 -19.71743,-13.69084 -16.37186,-3.95285 -1.57206,10.41744 5.98292,14.04309 -14.4357,-15.23777 -16.44062,-16.0396 -14.43581,1.20295 -5.21293,6.81691 v 0 l -18.15512,0.52877 -13.12219,8.29299 v 0 l -0.40101,10.42585 2.00498,10.02479 -23.65858,-21.65361 -16.84169,-8.42092 7.60704,-12.84343 18.05652,-1.19115 8.42076,2.00487 8.42093,-11.2278 18.8466,-0.80202 24.46048,5.61399 24.05959,8.82188 19.24762,4.41084 z"
       id="path688542"
       sodipodi:nodetypes="ccccccccccccccccccccccccccccc" />
    <path
       style="display:inline;fill:#015480;fill-opacity:1;stroke:none;stroke-width:0.999998px;stroke-linecap:butt;stroke-linejoin:miter;stroke-opacity:1"
       d="m 276.63746,290.31486 9.924,13.61017 5.65509,9.06578 -12.64847,-12.69858 3.09982,8.62568 -6.03162,-5.67139 0.56254,7.50045 -6.24814,-6.54613 3.39663,8.82725 -6.49976,-1.44742 -10.49114,6.5216 -5.10379,10.49108 -1.41769,-9.64052 -5.67088,9.64052 -5.38745,9.64058 -5.95436,-13.04309 -3.40251,10.20754 -7.65569,20.13165 -5.95442,10.49124 -0.85073,-7.37221 -4.25311,7.93929 -5.95442,8.7898 -18.99744,9.64058 -17.01268,3.11892 2.5519,-11.6253 18.71391,-33.45822 27.22027,-26.08612 22.68355,-17.01268 13.32657,1.41785 10.49113,1.41758 4.82022,-9.6404 z"
       id="path688544"
       sodipodi:nodetypes="cccccccccccccccccccccccccccccccc" />
    <path
       style="display:inline;fill:#aee0eb;fill-opacity:1;stroke:none;stroke-width:0.999998px;stroke-linecap:butt;stroke-linejoin:miter;stroke-opacity:1"
       d="m 438.39752,335.30824 12.02971,20.45057 8.82193,19.24766 2.40593,15.63867 -7.61885,-19.64856 0.80201,10.02479 -4.41102,-12.43084 -6.01488,-16.84157 z"
       id="path688546"
       sodipodi:nodetypes="cccccccccc" />
    <path
       style="display:inline;fill:#f39025;fill-opacity:1;stroke:none;stroke-width:0.999998px;stroke-linecap:butt;stroke-linejoin:miter;stroke-opacity:1"
       d="m 391.08047,320.47153 -9.62383,-4.00985 -2.807,4.8118 -7.6188,-0.40094 -2.00497,8.82182 6.01487,11.22786 7.61881,22.05449 10.42579,18.84662 7.21796,12.83178 -5.61388,-26.06458 5.21282,11.22787 3.20799,10.02473 2.80694,12.43088 -2.00503,-12.83184 4.00996,10.02485 -4.81187,-26.46552 -8.42081,-15.23771 -4.01,-14.83665 4.01,5.21282 10.8268,14.03479 8.01981,14.0347 5.61387,10.82679 -2.00497,-9.22282 4.81192,11.62875 2.80693,9.22284 -0.8019,-16.84168 5.61387,7.61884 -4.00996,-12.43071 4.00996,2.00487 -4.00996,-10.02473 -4.81191,-9.22277 -6.41589,-14.03475 -14.83671,-18.84666 z"
       id="path688548" />
    <path
       style="display:inline;fill:#fbda52;fill-opacity:1;stroke:none;stroke-width:0.999998px;stroke-linecap:butt;stroke-linejoin:miter;stroke-opacity:1"
       d="m 460.37424,322.92243 15.59487,17.01273 8.50643,5.67086 1.98476,1.70119 -9.07354,-4.82015 5.67098,5.38733 3.96965,3.40252 -7.65576,-4.25319 5.3874,5.1038 3.96958,4.25324 -5.38728,-3.96971 3.96959,7.08863 1.70123,5.3874 -7.65569,-10.20761 -7.08862,-9.07345 6.80508,13.61006 2.83544,9.07351 1.41768,8.78979 -3.96958,-11.90883 -5.10375,-9.92406 -3.96965,-6.52143 7.08857,16.16202 3.11897,9.92405 1.13422,8.50625 -0.56708,6.52154 -2.5519,-13.04302 -3.96959,-11.90882 0.85051,8.22282 -2.2682,-7.65581 -4.25324,-10.77462 -5.38739,-12.19241 -3.11893,-8.22277 -8.50635,-14.46078 z"
       id="path688550" />
    <path
       style="display:inline;fill:#ffffff;stroke:none;stroke-width:0.999998px;stroke-linecap:butt;stroke-linejoin:miter;stroke-opacity:1"
       d="m 343.83745,479.15539 c 0,0 -31.4734,-22.96703 -31.4734,-22.96703 l -8.78986,-0.85067 -19.28104,-12.19242 -17.86329,-17.29622 15.02785,26.65315 -56.42531,-44.51644 1.70128,7.08863 11.3417,17.29621 13.04308,11.90882 -5.95441,-2.5519 7.65565,11.34181 -16.44561,-0.85067 26.9368,35.72658 z"
       id="path688552" />
    <path
       style="display:inline;fill:#f8a9c2;fill-opacity:1;stroke:none;stroke-width:0.999998px;stroke-linecap:butt;stroke-linejoin:miter;stroke-opacity:1"
       d="m 312.36405,456.18836 -5.67083,-8.78991 9.35693,4.82021 20.22057,15.67214 -11.14718,-17.08978 9.92399,2.55185 7.65581,0.28359 -8.22282,-15.02786 12.47595,11.34176 7.93925,1.70122 -9.92406,-16.16201 12.47589,7.37217 -6.52143,-16.72909 13.61006,15.31133 12.75955,11.34175 -2.26836,-9.35692 9.64046,6.8052 11.05832,3.68599 0.28354,3.82782 -15.31146,4.11146 -36.86078,17.29611 -6.44618,13.14981 z"
       id="path688554"
       sodipodi:nodetypes="ccccccccccccccccccccccc" />
    <path
       style="display:inline;fill:#3d2657;fill-opacity:1;stroke:none;stroke-width:0.999998px;stroke-linecap:butt;stroke-linejoin:miter;stroke-opacity:1"
       d="m 380.55647,465.68594 -15.59493,4.82143 -21.12409,8.64802 -4.65744,8.96852 -1.78874,4.18129 13.96017,1.45275 22.96703,-6.52155 24.24301,-5.10375 25.66081,-1.41769 17.29627,0.28349 -16.16206,-6.37972 1.98476,-0.42537 -8.93172,-5.38851 -14.31885,-3.40246 -15.02785,-0.99244 z"
       id="path688556"
       sodipodi:nodetypes="cccccccccccccccc" />
    <path
       style="display:inline;fill:#fbda52;fill-opacity:1;stroke:none;stroke-width:0.999998px;stroke-linecap:butt;stroke-linejoin:miter;stroke-opacity:1"
       d="m 209.15393,487.09469 54.15696,0.85055 -10.49119,-34.87591 -31.47346,-5.38734 -11.62529,-7.65569 0.85067,3.96964 -20.98227,-16.72915 20.1316,22.68357 -7.3721,-1.98483 -20.1316,-18.14683 0.56708,6.52149 17.2961,23.25063 2.1327,31.50291 z"
       id="path688558"
       sodipodi:nodetypes="cccccccccccccc" />
    <path
       style="display:inline;fill:#80c342;fill-opacity:1;stroke:none;stroke-width:0.999998px;stroke-linecap:butt;stroke-linejoin:miter;stroke-opacity:1"
       d="m 200.08043,459.59082 2.1327,31.50291 -14.89213,10.46168 5.67081,-1.70135 -12.19236,9.92412 7.08862,-2.83538 -11.90883,11.62529 -3.11903,7.3721 -5.67087,-0.28354 1.41764,-32.04053 -7.65565,-41.68095 13.89364,27.50376 -10.49107,-30.90638 12.47591,17.29627 8.50635,6.23795 -7.93922,-16.16195 -9.92406,-18.99756 v -5.95436 l 9.92406,24.95192 8.78984,5.10374 z"
       id="path688560" />
    <path
       style="display:inline;fill:#aee0eb;fill-opacity:1;stroke:none;stroke-width:0.999998px;stroke-linecap:butt;stroke-linejoin:miter;stroke-opacity:1"
       d="m 437.69063,438.89214 -7.65569,-3.6861 -9.07345,-21.54935 1.13421,20.98227 -6.23795,-7.65564 -3.68605,14.17713 -11.05832,0.85072 1.13421,-13.89376 -4.25314,-16.16205 -3.11903,9.07349 -0.85066,8.78985 1.70139,24.1013 0.28354,3.82782 10.49102,-0.70884 24.38483,5.38738 z"
       id="path688562"
       sodipodi:nodetypes="cccccccccccccccc" />
    <path
       style="display:inline;fill:#972239;fill-opacity:1;stroke:none;stroke-width:0.999998px;stroke-linecap:butt;stroke-linejoin:miter;stroke-opacity:1"
       d="m 210.25611,521.3608 8.82188,-4.21052 28.07089,-9.07344 22.39991,0.56719 -13.00133,21.14537 -9.62372,-3.80934 -15.63878,0.40094 -15.03715,5.81439 z"
       id="path688564"
       sodipodi:nodetypes="ccccccccc" />
    <path
       style="display:inline;fill:#f39025;fill-opacity:1;stroke:none;stroke-width:0.999998px;stroke-linecap:butt;stroke-linejoin:miter;stroke-opacity:1"
       d="m 210.25611,521.3608 -26.62127,11.38441 1.13426,-3.11902 -9.92413,7.65581 0.2836,-4.2532 3.40257,-9.64051 -5.67093,2.5519 -5.67087,-0.28354 7.93923,45.3671 28.88897,-12.9643 3.40845,-13.63374 8.82182,-12.23032 z"
       id="path688566"
       sodipodi:nodetypes="ccccccccccccc" />
    <path
       style="display:inline;fill:#bd2b47;fill-opacity:1;stroke:none;stroke-width:0.999998px;stroke-linecap:butt;stroke-linejoin:miter;stroke-opacity:1"
       d="m 265.72102,553.72748 -8.78985,2.8355 -10.77479,7.37221 -23.53411,3.96965 -11.20004,-0.28354 20.1316,2.97709 14.88609,-2.41013 12.75956,-6.37966 6.80496,-5.81276 z"
       id="path688568" />
    <path
       style="display:inline;fill:#f39025;fill-opacity:1;stroke:none;stroke-width:0.999998px;stroke-linecap:butt;stroke-linejoin:miter;stroke-opacity:1"
       d="m 265.78854,607.21003 19.63877,-16.2918 v 4.49031 l -11.05828,29.20509 0.2836,10.77462 8.50638,9.07351 -34.43086,12.24179 -12.83177,-11.82931 z"
       id="path688570" />
    <path
       style="display:inline;fill:#015480;fill-opacity:1;stroke:none;stroke-width:0.999998px;stroke-linecap:butt;stroke-linejoin:miter;stroke-opacity:1"
       d="m 328.52605,641.34266 10.42541,1.12559 7.2179,20.85164 -7.61892,12.83178 -16.44067,2.40593 -15.36397,-9.06935 1.6486,-29.56322 7.65575,1.41763 z"
       id="path688572"
       sodipodi:nodetypes="ccccccccc" />
    <path
       style="display:inline;fill:#cc791f;fill-opacity:1;stroke:none;stroke-width:0.999998px;stroke-linecap:butt;stroke-linejoin:miter;stroke-opacity:1"
       d="m 397.18802,674.4215 9.68559,-16.21767 4.16696,-7.32036 24.09817,6.9048 2.26835,10.20765 6.08421,32.01024 -25.01766,10.67977 -16.55545,-7.88358 -3.15347,-4.95542 9.55839,-14.07651 5.61387,-16.44062 -12.02982,6.81683 z"
       id="path688574"
       sodipodi:nodetypes="ccccccccccccc" />
    <path
       style="display:inline;fill:#3d2657;fill-opacity:1;stroke:none;stroke-width:0.999998px;stroke-linecap:butt;stroke-linejoin:miter;stroke-opacity:1"
       d="m 316.05015,641.34266 -7.65575,-1.41763 -12.47596,4.25319 -12.75943,0.28354 5.12317,17.7966 33.82759,16.29924 z"
       id="path688576"
       sodipodi:nodetypes="ccccccc" />
    <path
       style="display:inline;fill:none;stroke:none;stroke-width:0.999998px;stroke-linecap:butt;stroke-linejoin:miter;stroke-opacity:1"
       d="m 275.19367,689.78535 16.84169,10.22535 32.27989,8.42081 16.84163,3.00745 23.85909,-9.22284 16.44067,-9.42327 24.86143,-17.04219 -17.44308,1.20291 -11.22781,3.60901 -13.83424,3.10767 -17.54336,3.00749 -15.33799,2.5061 -13.63368,1.40347 -17.04218,-0.80196 -14.03481,0.80196 -4.2104,-1.30314 -6.01489,-0.10033 -1.40347,0.80202 z"
       id="path688578" />
    <path
       style="display:inline;fill:#ffffff;stroke:none;stroke-width:0.999998px;stroke-linecap:butt;stroke-linejoin:miter;stroke-opacity:1"
       d="m 286.22092,690.58731 4.31069,4.61141 3.70923,0.50124 4.61136,4.00991 4.00996,-1.3032 4.91208,0.90229 6.71455,0.2785 6.41801,2.52849 15.338,-1.3033 0.90218,-2.10514 1.30319,2.40587 14.13502,-1.40351 4.41097,-4.91204 0.70173,-3.30822 4.41091,2.80699 5.7141,-1.50375 2.90721,-5.21292 4.71165,3.60889 6.81689,-4.31062 1.30318,-3.20795 4.91215,-0.80196 0.40101,-5.91472 -11.22781,3.60901 -15.53838,3.50867 -24.26009,4.0099 -20.5508,2.50616 -17.04218,-0.80196 z"
       id="path688580"
       sodipodi:nodetypes="cccccccccccccccccccccccccccc" />
    <path
       style="display:inline;fill:#2a1a3c;fill-opacity:1;stroke:none;stroke-width:0.999998px;stroke-linecap:butt;stroke-linejoin:miter;stroke-opacity:1"
       d="m 286.22092,690.58731 4.31069,4.61141 3.70923,0.50124 -0.16546,4.83263 -2.04002,-0.52189 -16.84169,-10.22535 0.80196,-0.60151 6.01489,0.10033 z"
       id="path688582" />
    <path
       style="display:inline;fill:#015480;fill-opacity:1;stroke:none;stroke-width:0.999998px;stroke-linecap:butt;stroke-linejoin:miter;stroke-opacity:1"
       d="m 338.45017,701.11338 -1.30319,-2.40587 -0.90218,2.10514 z"
       id="path688584" />
    <path
       style="display:inline;fill:#015480;fill-opacity:1;stroke:none;stroke-width:0.999998px;stroke-linecap:butt;stroke-linejoin:miter;stroke-opacity:1"
       d="m 356.99616,694.79783 0.70173,-3.30822 4.41091,2.80699 z"
       id="path688586" />
    <path
       style="display:inline;fill:#2a1a3c;fill-opacity:1;stroke:none;stroke-width:0.999998px;stroke-linecap:butt;stroke-linejoin:miter;stroke-opacity:1"
       d="m 388.87499,676.95357 -0.40101,5.91472 -4.91215,0.80196 -1.30318,3.20795 2.05476,-0.23926 0.77973,3.61522 21.22493,-14.5035 -17.44308,1.20291"
       id="path688588" />
    <path
       style="display:inline;fill:#e55177;fill-opacity:1;stroke:none;stroke-width:0.999998px;stroke-linecap:butt;stroke-linejoin:miter;stroke-opacity:1"
       d="m 390.52011,693.04017 -7.76023,1.45687 -9.72406,7.51858 -10.62629,11.22781 0.8019,9.62378 6.91713,1.00252 7.49388,-7.1856 16.83266,-21.11621 0.007,-2.7048 z"
       id="path688590"
       sodipodi:nodetypes="cccccccccc" />
    <path
       style="display:inline;fill:#f8a9c2;fill-opacity:1;stroke:none;stroke-width:0.999998px;stroke-linecap:butt;stroke-linejoin:miter;stroke-opacity:1"
       d="m 388.3737,696.30147 -10.22529,9.42332 -9.62378,9.22283 0.80191,3.70918 4.99277,-5.1361 18.86631,-19.2241 v 0 0 z"
       id="path688592"
       sodipodi:nodetypes="ccccccccc" />
    <path
       style="display:inline;fill:#ffffff;fill-opacity:1;stroke:none;stroke-width:0.999998px;stroke-linecap:butt;stroke-linejoin:miter;stroke-opacity:1"
       d="m 186.0617,616.46623 79.72684,-9.2562 -29.89216,37.66421 -34.67317,16.32517 -10.19343,-23.25377 z"
       id="path688594" />
    <path
       style="display:inline;fill:#ffffff;fill-opacity:1;stroke:none;stroke-width:0.999998px;stroke-linecap:butt;stroke-linejoin:miter;stroke-opacity:1"
       d="m 338.95146,642.46825 26.32217,1.2112 36.63253,2.86684 9.13441,4.33718 -13.85255,23.53803 -12.92439,1.73017 -29.67352,-2.00504 -16.03967,2.00504 7.61892,-12.83178 z"
       id="path688596" />
    <path
       style="display:inline;fill:#3d2657;fill-opacity:1;stroke:none;stroke-width:0.999998px;stroke-linecap:butt;stroke-linejoin:miter;stroke-opacity:1"
       d="m 371.05772,622.91235 -4.53673,9.64052 -10.49113,2.55184 -9.35698,-1.98476 -10.49113,0.28354 -7.6557,7.93917 10.42541,1.12559 30.62245,1.2112 9.55631,-8.9193 -1.51299,-9.95441 -2.6281,-1.99098 z"
       id="path688598" />
    <path
       style="display:inline;fill:#80c342;fill-opacity:1;stroke:none;stroke-width:0.999998px;stroke-linecap:butt;stroke-linejoin:miter;stroke-opacity:1"
       d="m 374.98913,622.81476 2.6281,1.99098 1.51299,9.95441 -9.55631,8.9193 32.33225,2.86684 9.13441,4.33718 14.97875,7.32036 9.11942,-0.41556 -4.53673,-35.1594 -21.83293,-5.67105 z"
       id="path688600" />
    <path
       style="display:inline;fill:#bd2b47;fill-opacity:1;stroke:none;stroke-width:0.999998px;stroke-linecap:butt;stroke-linejoin:miter;stroke-opacity:1"
       d="m 396.57665,625.18065 21.26587,16.72915 17.29622,15.87847 2.26835,10.20765 -10.77472,-15.87848 -14.46067,-10.49119 -19.2811,-13.89358 -5.95441,-6.52161 z"
       id="path688602" />
    <path
       style="display:inline;fill:#dfc247;fill-opacity:1;stroke:none;stroke-width:0.999998px;stroke-linecap:butt;stroke-linejoin:miter;stroke-opacity:1"
       d="m 398.76472,697.84693 3.15347,4.95542 16.55545,7.88358 18.15389,20.59324 -14.33446,19.43115 -24.20936,26.75774 -20.70545,-19.43116 -17.36067,-28.82833 17.8301,-7.34388 18.84665,-21.25254 z"
       id="path688604" />
    <path
       style="display:inline;fill:#80c342;fill-opacity:1;stroke:none;stroke-width:0.999998px;stroke-linecap:butt;stroke-linejoin:miter;stroke-opacity:1"
       d="m 443.4913,700.00616 4.93101,21.85853 -11.79478,9.41448 -18.15389,-20.59324 z"
       id="path688606" />
    <path
       style="display:inline;fill:#aee0eb;fill-opacity:1;stroke:none;stroke-width:0.999998px;stroke-linecap:butt;stroke-linejoin:miter;stroke-opacity:1"
       d="m 360.01759,729.20857 -12.64533,5.08689 -36.08929,-2.80688 -3.85504,37.98632 0.45057,13.28946 36.71483,7.88346 27.25471,-2.0272 18.01956,-4.95532 8.21611,-6.19724 -20.70545,-19.43116 z"
       id="path688608" />
    <path
       style="display:inline;fill:none;stroke:none;stroke-width:0.999998px;stroke-linecap:butt;stroke-linejoin:miter;stroke-opacity:1"
       d="m 254.72064,668.33993 -2.47765,12.38844 2.2524,11.4875 6.08162,6.53207 11.4875,4.73016 6.33711,0.74301 -12.41879,-10.65379 -7.22983,-6.58891 2.80688,-4.41091 0.36865,-11.74986 -2.25246,-4.95543 z"
       id="path688610"
       sodipodi:nodetypes="cccccccccccc" />
    <path
       style="display:inline;fill:#f8a9c2;fill-opacity:1;stroke:none;stroke-width:0.999998px;stroke-linecap:butt;stroke-linejoin:miter;stroke-opacity:1"
       d="m 322.10977,678.5576 -10.87988,-2.33891 -12.61778,0.42531 -16.60159,6.32451 -20.45064,-0.40101 0.36865,-11.74986 -2.25246,-4.95543 -10.94792,-9.15866 34.43086,-12.24179 5.12317,17.7966 18.46362,7.22989 z"
       id="path688612"
       sodipodi:nodetypes="cccccccccccc" />
    <path
       style="display:inline;fill:#016ca1;fill-opacity:1;stroke:none;stroke-width:0.999998px;stroke-linecap:butt;stroke-linejoin:miter;stroke-opacity:1"
       d="m 272.06451,703.4781 6.33711,0.74301 13.23273,17.64358 19.64862,9.62389 -3.85504,37.98632 0.45057,13.28946 -20.49733,-22.74979 -25.90315,-21.84873 -15.76716,-12.16325 14.86615,-27.25465 z"
       id="path688614"
       sodipodi:nodetypes="ccccccccccc" />
    <path
       style="display:inline;fill:#f39025;fill-opacity:1;stroke:none;stroke-width:0.999998px;stroke-linecap:butt;stroke-linejoin:miter;stroke-opacity:1"
       d="m 235.89638,644.87424 12.83177,11.82931 10.94792,9.15866 -4.95543,2.47772 -2.47765,12.38844 2.2524,11.4875 6.08162,6.53207 -14.86615,27.25465 -28.83136,-29.28186 -11.03698,-21.62343 -4.61931,-13.89789 z"
       id="path688616" />
    <path
       style="display:inline;fill:#3d2657;fill-opacity:1;stroke:none;stroke-width:0.999998px;stroke-linecap:butt;stroke-linejoin:miter;stroke-opacity:1"
       d="m 259.67607,665.86221 2.25246,4.95543 -0.36865,11.74986 -2.80688,4.41091 19.64862,17.2427 -6.33711,-0.74301 -11.4875,-4.73016 -6.08162,-6.53207 -2.2524,-11.4875 2.47765,-12.38844 z"
       id="path688618" />
    <path
       style="display:inline;fill:#bd2b47;fill-opacity:1;stroke:none;stroke-width:0.999998px;stroke-linecap:butt;stroke-linejoin:miter;stroke-opacity:1"
       d="m 258.35205,645.27518 -6.21544,10.42585 -7.4183,13.43319 -2.20549,13.83429 -0.40099,5.41338 -0.80202,-12.02977 1.00251,-8.62132 6.41583,-11.02725 5.81433,-8.62136 z"
       id="path688620" />
    <path
       style="display:inline;fill:#2d1b40;fill-opacity:1;stroke:#000000;stroke-width:0.999998px;stroke-linecap:butt;stroke-linejoin:miter;stroke-opacity:1"
       d="m 254.28055,737.44618 24.84654,21.02398 8.25408,6.43729 20.49733,22.74967 36.71483,7.88358 27.25471,-2.02715 18.01956,-4.95548 -9.76202,85.54358 -21.97953,8.9193 -52.55987,-24.84643 -40.45507,-54.15259 -14.97165,-23.89083 3.18544,-21.02398 z"
       id="path688622"
       sodipodi:nodetypes="cccccccccccccc" />
    <path
       style="display:inline;fill:#f39025;fill-opacity:1;stroke:none;stroke-width:0.999998px;stroke-linecap:butt;stroke-linejoin:miter;stroke-opacity:1"
       d="m 437.82115,740.62059 -11.79483,9.41443 -24.03036,31.53589 19.7498,86.64412 20.3868,-58.61221 -1.91125,-44.59621 z"
       id="path688624"
       sodipodi:nodetypes="ccccccc" />
    <path
       style="display:inline;fill:#015480;fill-opacity:1;stroke:none;stroke-width:0.999998px;stroke-linecap:butt;stroke-linejoin:miter;stroke-opacity:1"
       d="m 337.42065,902.33743 -64.34596,-56.06378 -38.22534,-59.88635 8.15855,-13.98424 -53.60824,29.28181 6.30681,45.49953 53.60825,55.4102 73.88038,47.30135 v 0 l 14.22555,-47.55852"
       id="path688626"
       sodipodi:nodetypes="cccccccccc" />
    <path
       style="display:inline;fill:#2d1b40;fill-opacity:1;stroke:none;stroke-width:0.999998px;stroke-linecap:butt;stroke-linejoin:miter;stroke-opacity:1"
       d="m 234.84935,786.3873 -12.56398,80.16811 27.02935,36.03919 z"
       id="path688628"
       sodipodi:nodetypes="cccc" />
    <path
       style="display:inline;fill:#aee0eb;fill-opacity:1;stroke:none;stroke-width:0.999998px;stroke-linecap:butt;stroke-linejoin:miter;stroke-opacity:1"
       d="m 474.0007,749.33625 27.0294,18.01957 4.50486,50.45494 -18.92062,65.77138 -50.45472,46.85095 -85.59307,13.96521 -1.35146,-53.60822 50.00434,9.00978 41.44505,-26.12839 28.83135,-51.35595 18.92064,-52.25673 z"
       id="path688630" />
    <path
       style="display:inline;fill:#fbe692;fill-opacity:1;stroke:none;stroke-width:0.999998px;stroke-linecap:butt;stroke-linejoin:miter;stroke-opacity:1"
       d="m 488.41647,770.05879 17.11849,47.75197 -4.50486,-50.45494 -27.0294,-18.01957 z"
       id="path688632" />
  </g>
</svg>
